<svg xmlns="http://www.w3.org/2000/svg" width="23.48" height="23.48" viewBox="0 0 23.48 23.48"><path d="M11.74 0a11.74 11.74 0 1 0 11.74 11.74A11.74 11.74 0 0 0 11.74 0zm3.08 9.8v.24a5.13 5.13 0 0 1-4.95 5.33 4.6 4.6 0 0 1-2.66-.85 2.73 2.73 0 0 0 .41 0 3.33 3.33 0 0 0 2.16-.8 1.75 1.75 0 0 1-1.62-1.3 1.66 1.66 0 0 0 .32 0 1.7 1.7 0 0 0 .52 0 1.84 1.84 0 0 1-1.39-1.83 1.61 1.61 0 0 0 .78.23 1.9 1.9 0 0 1-.77-1.55 1.93 1.93 0 0 1 .24-.94 4.79 4.79 0 0 0 3.58 1.95 1.93 1.93 0 0 1-.05-.42A1.8 1.8 0 0 1 13.08 8a1.67 1.67 0 0 1 1.27.59 3.34 3.34 0 0 0 1.1-.46 1.88 1.88 0 0 1-.76 1 3.5 3.5 0 0 0 1-.3 3.69 3.69 0 0 1-.87.97z" fill="#fff"/></svg>