<svg xmlns="http://www.w3.org/2000/svg" width="23.48" height="23.48"><path d="M11.74 0a11.74 11.74 0 1 0 11.74 11.74A11.74 11.74 0 0 0 11.74 0zm-3 15.66a1.12 1.12 0 1 1 1.12-1.12 1.12 1.12 0 0 1-1.1 1.12zm3.26-.44a.68.68 0 0 1-.68-.68 2.51 2.51 0 0 0-.75-1.81A2.54 2.54 0 0 0 8.76 12a.67.67 0 0 1-.67-.68.68.68 0 0 1 .46-.64h.24a3.93 3.93 0 0 1 3.9 3.92.67.67 0 0 1-.69.62zm2.82-.08a.68.68 0 0 1-.68-.67 5.31 5.31 0 0 0-5.3-5.32.68.68 0 0 1 0-1.35 6.66 6.66 0 0 1 6.67 6.67.67.67 0 0 1-.68.67z" fill="#646464"/></svg>