<svg xmlns="http://www.w3.org/2000/svg" width="21.93" height="19.18" viewBox="0 0 21.93 19.18"><defs><style>.a{fill:#646464;}</style></defs><title>some_twitter_ps</title><path class="a" d="M19.68,4.78c0,.21,0,.42,0,.62,0,6.4-4.52,13.78-12.79,13.78A12,12,0,0,1,0,17a7.59,7.59,0,0,0,1.07.07A8.62,8.62,0,0,0,6.66,15a4.54,4.54,0,0,1-4.2-3.37,3.38,3.38,0,0,0,.84.09,4.27,4.27,0,0,0,1.19-.16A4.78,4.78,0,0,1,.88,6.81V6.74a4.23,4.23,0,0,0,2,.61,4.93,4.93,0,0,1-2-4A5.14,5.14,0,0,1,1.52.89a12.49,12.49,0,0,0,9.27,5.05,5.62,5.62,0,0,1-.11-1.1A4.68,4.68,0,0,1,15.18,0a4.35,4.35,0,0,1,3.28,1.53A9,9,0,0,0,21.32.36a4.81,4.81,0,0,1-2,2.67,8.32,8.32,0,0,0,2.59-.76A9.84,9.84,0,0,1,19.68,4.78Z"/></svg>