<svg xmlns="http://www.w3.org/2000/svg" width="23.48" height="23.48"><defs><style>.a{fill:#646464}</style></defs><path class="a" d="M11.23 10.36a.2.2 0 0 0-.2 0 .19.19 0 0 0-.1.17v2.31A.19.19 0 0 0 11 13h.09a.15.15 0 0 0 .11 0l1.59-1.15a.19.19 0 0 0 .08-.16.19.19 0 0 0-.08-.15z"/><path class="a" d="M11.74 0a11.74 11.74 0 1 0 11.74 11.74A11.74 11.74 0 0 0 11.74 0zm3.72 13.53v.08a.77.77 0 0 1-.72.52 24.11 24.11 0 0 1-3.11.21 24.31 24.31 0 0 1-3.11-.21h.08a.76.76 0 0 1-.72-.52v-.08a13.59 13.59 0 0 1-.13-1.87 13.28 13.28 0 0 1 .1-1.86v-.09a.76.76 0 0 1 .72-.52h-.03a24.31 24.31 0 0 1 3.11-.21 24.11 24.11 0 0 1 3.11.21.77.77 0 0 1 .72.52v.09a13.28 13.28 0 0 1 .13 1.86 13.59 13.59 0 0 1-.15 1.87z"/></svg>