<svg xmlns="http://www.w3.org/2000/svg" width="23.48" height="23.48" viewBox="0 0 23.48 23.48"><defs><style>.a{fill:#fff}</style></defs><path class="a" d="M13.63 11.65a2.16 2.16 0 0 1-4.32 0 2 2 0 0 1 .16-.81H8.29v3.24a.76.76 0 0 0 .75.75h4.85a.76.76 0 0 0 .76-.75v-3.24h-1.18a2.17 2.17 0 0 1 .16.81z"/><path class="a" d="M11.47 13a1.39 1.39 0 0 0 1.39-1.39 1.39 1.39 0 0 0-1.39-1.39 1.38 1.38 0 0 0-1.13.58 1.42 1.42 0 0 0-.26.81A1.39 1.39 0 0 0 11.47 13zm3.04-3.05V8.61h-.18l-1.17.01.01 1.33h1.34z"/><path class="a" d="M11.74 0a11.74 11.74 0 1 0 11.74 11.74A11.74 11.74 0 0 0 11.74 0zm3.68 10.84v3.24a1.53 1.53 0 0 1-1.53 1.52H9a1.52 1.52 0 0 1-1.52-1.52V9.23A1.53 1.53 0 0 1 9 7.7h4.85a1.54 1.54 0 0 1 1.53 1.53z"/></svg>